<svg width="17" height="16" viewBox="0 0 17 16" fill="none" xmlns="http://www.w3.org/2000/svg">
  <path d="M2.45459 5.27647H13.0953C13.8319 5.27647 14.4286 5.87314 14.4286 6.6098V12.6665C14.4286 13.3998 13.8286 13.9998 13.0953 13.9998H3.76192C3.02526 13.9998 2.42859 13.4031 2.42859 12.6665V5.52714C2.42859 4.97247 2.77192 4.4758 3.29126 4.2798L10.1933 1.6738C10.6293 1.50914 11.0953 1.83114 11.0953 2.29714V5.2758" stroke="#E12828" stroke-linecap="round" stroke-linejoin="round" />
  <path d="M11.0946 9.41664C10.9566 9.41731 10.8452 9.52931 10.8452 9.66731C10.8452 9.80531 10.9572 9.91731 11.0952 9.91664C11.2332 9.91664 11.3452 9.80464 11.3452 9.66664C11.3452 9.52864 11.2332 9.41664 11.0946 9.41664" stroke="#E12828" stroke-linecap="round" stroke-linejoin="round" />
</svg>